<svg width="165" height="29" viewBox="0 0 165 29" fill="none" xmlns="http://www.w3.org/2000/svg">
<path d="M30.4609 11.0668C30.3539 11.0931 30.1223 11.1631 29.962 11.1806C30.2649 10.8918 30.443 10.5418 30.443 10.2531C30.3005 10.2968 30.0422 10.3931 29.8105 10.4456C30.2738 10.0606 30.5321 9.60558 30.4163 9.01058C30.2738 9.08058 30.0778 9.19433 29.8729 9.27308C30.2827 8.66058 30.2738 8.11808 30.1045 7.80308C29.9263 7.96933 29.7036 8.16183 29.472 8.30183C29.6235 7.59308 29.6145 7.13808 29.3117 6.81433C28.9999 7.39183 28.7326 7.82058 28.2961 8.32808C28.3317 7.85558 28.2783 7.26933 27.9665 6.97183C27.9665 6.97183 27.8774 7.62808 27.6458 7.83808C27.5923 7.19933 27.3874 6.84933 27.0934 6.50808C27.0934 6.50808 27.0756 7.17308 26.8885 7.58433C26.7282 7.02433 26.4431 6.59558 26.069 6.18433C26.0957 7.41808 25.7483 9.73683 24.7416 11.3031C24.6258 12.2306 24.5189 13.6218 22.9866 14.4443C22.7639 14.2956 22.3808 14.0943 21.8285 14.1293C21.686 13.4293 22.6125 12.7993 23.4142 12.2918C24.2249 11.7756 24.5723 11.3381 24.5634 10.6556C24.5456 9.90308 24.0289 9.59683 23.4944 9.57933C22.7372 9.54433 22.1225 10.2181 21.98 10.4981C21.7572 10.6031 21.1158 10.7956 20.8486 10.8656C20.5546 10.9443 20.225 11.0581 20.0112 11.2331C20.1359 11.3118 20.4922 11.3381 20.6259 11.3118C20.8842 11.2768 21.7038 11.1281 22.4788 11.0318C22.7639 11.1806 23.2182 11.4343 22.7372 11.7668C22.069 12.1868 21.784 12.2918 20.8486 12.7731C19.3698 13.5343 19.8508 15.4506 20.2072 15.5906C20.2072 16.2381 20.7951 17.4018 21.196 17.8131C21.3742 18.6268 21.1336 19.8343 20.8842 20.3418C20.6793 19.8518 20.323 18.7056 20.0914 18.0406C20.3319 16.7806 19.9399 16.2206 19.6727 16.0106C19.4054 15.7918 18.9778 15.8531 18.6927 16.2906C19.1203 16.2468 19.2629 16.7806 19.254 17.3406C19.245 18.0056 19.0669 18.5481 18.5947 18.5481C18.6304 19.1168 19.254 19.2831 19.5658 19.0031C19.6192 19.1343 19.8686 19.8781 20.1003 20.5431C20.2428 20.9368 20.3764 21.3043 20.4655 21.4968C20.5635 21.7068 21.2851 21.7418 21.3653 21.4968C21.4811 21.1731 21.5702 20.9281 21.7483 20.5431C21.882 20.2543 22.078 19.8868 22.363 19.3443C22.559 19.6768 22.8174 20.1931 22.9599 20.5431C23.0312 20.7093 23.0757 20.8406 23.0846 20.9018C23.147 21.4443 23.1113 23.3781 22.9599 24.5331C21.3475 24.1043 20.8842 24.8743 21.0267 25.4518C21.2584 25.1981 21.5613 25.2331 21.7483 25.3643C21.7038 25.7843 21.8196 26.0906 22.2561 26.2218C22.7194 25.0143 24.3853 25.2856 24.5456 25.3818C24.5545 25.1456 24.7772 24.5681 23.922 24.4456C23.9576 23.4043 24.0645 22.1268 24.1002 21.8643C24.1358 21.6018 24.1714 21.4356 24.0467 21.0156C24.0111 20.8931 23.9576 20.7356 23.9131 20.5518C23.7973 20.1318 23.6904 19.5806 23.6815 18.9856C23.8329 19.1343 24.1893 19.2481 24.4298 19.1956C24.6169 19.9831 24.893 19.7556 25.0356 20.0881C25.1068 20.2543 25.1247 20.4206 25.1425 20.5606C25.1603 20.7006 25.187 20.8143 25.2583 20.9193C25.8284 20.9368 26.3184 20.8056 26.6658 20.5606C26.7727 20.4906 26.8707 20.4031 26.942 20.3156C26.7995 19.4756 26.5589 19.0643 26.1135 18.5568C25.9977 17.8743 25.6681 17.2443 25.2227 16.6843C25.7839 16.5006 26.354 16.0543 26.6569 15.7393C26.9242 15.7218 27.236 15.5031 27.2627 15.0656C27.4231 15.0481 27.5567 15.0393 27.6814 15.0131C27.6636 14.8906 27.6369 14.7156 27.619 14.6106C27.8239 14.6106 28.0288 14.6018 28.2159 14.5843C28.1625 14.4268 28.0823 14.2606 28.0288 14.1381C28.2337 14.1381 28.4921 14.1206 28.697 14.1118C28.5901 13.9106 28.501 13.7268 28.4386 13.5518C28.6792 13.5256 29.0444 13.4731 29.3473 13.4031C29.2493 13.3068 29.1424 13.2018 28.9731 13.0443C29.7571 12.8168 30.1045 12.2743 30.1401 12.0381C30.0243 12.0381 29.7838 12.0906 29.6413 12.0731C30.1223 11.7931 30.4163 11.4431 30.4609 11.0668Z" fill="white"/>
<path d="M14.5406 25.2507C10.1487 23.6407 9.58749 20.1057 9.56967 18.4957C9.56967 18.4957 9.56076 18.4957 9.55186 18.4957C9.56076 18.4519 9.56076 18.4169 9.56967 18.3819C9.56967 18.0319 9.5964 17.7957 9.60531 17.7169C9.5964 17.4894 9.56076 17.3057 9.51622 17.1744C9.50731 17.1482 9.4895 17.1219 9.47168 17.0869V18.7494C9.47168 20.6132 10.1665 22.2232 11.5385 23.5269C12.7411 24.6732 14.0952 25.2069 14.4783 25.3382L14.5406 25.3557L14.603 25.3382C14.986 25.1982 16.3401 24.6732 17.5428 23.5269C18.9147 22.2232 19.6096 20.6132 19.6096 18.7494V18.4432C19.5739 18.4957 19.5383 18.5307 19.5027 18.5744C19.467 19.4144 19.3067 20.7094 18.7365 21.6894C18.0684 23.0632 17.0261 24.1919 14.5406 25.2507Z" fill="white"/>
<path d="M25.0619 26.3267C24.8481 26.388 24.5809 26.4317 24.1889 26.4317H23.6989C22.0152 26.3967 20.287 25.9067 19.2268 24.8392C20.6878 23.3867 18.9685 22.1967 18.042 23.4217C17.748 23.8067 17.5164 24.078 17.3204 24.4542C17.1601 24.7517 17.2759 25.058 17.6411 25.5217C17.8371 25.7755 18.336 26.1692 18.7458 26.4317H10.3362C10.737 26.1692 11.2359 25.7755 11.4408 25.5217C11.8061 25.058 11.9308 24.7605 11.7615 24.4542C11.5566 24.078 11.325 23.8067 11.0399 23.4217C10.1134 22.188 8.3941 23.3867 9.8551 24.8392C8.79499 25.9067 7.06674 26.3967 5.38303 26.4317H4.91979C4.52781 26.4317 4.26056 26.3967 4.04675 26.3267C3.69932 26.248 3.61915 26.388 3.80622 26.983C3.93094 27.368 4.03785 28.0155 4.08239 28.453H25.0263C25.0708 28.0155 25.1777 27.368 25.3024 26.9742C25.4895 26.388 25.4093 26.2392 25.0619 26.3267ZM18.5053 23.4742C18.7814 23.1155 19.1823 23.2117 19.3427 23.5092C19.5208 23.833 19.2625 24.2267 18.915 24.5417C18.4429 24.0342 18.3894 23.623 18.5053 23.4742ZM17.8104 25.163C17.6411 24.9267 17.5788 24.7955 17.6679 24.568C17.7569 24.3492 17.9351 24.1567 18.1133 23.8855C18.4073 25.0055 20.1266 26.073 21.4005 26.4317H19.3694C18.8616 26.143 18.1935 25.688 17.8104 25.163ZM9.73038 23.5092C9.89964 23.2117 10.3005 23.1155 10.5678 23.4742C10.6836 23.6317 10.6301 24.0342 10.158 24.5417C9.81056 24.2267 9.55221 23.833 9.73038 23.5092ZM10.9598 23.8767C11.1468 24.148 11.325 24.3492 11.4052 24.5592C11.4943 24.7867 11.4408 24.9267 11.2716 25.1542C10.8885 25.6792 10.2203 26.1342 9.69475 26.4142H7.67251C8.94643 26.073 10.6658 24.9967 10.9598 23.8767ZM24.661 28.1292H4.44764C4.35855 27.4992 4.23383 27.088 4.12693 26.7467H24.9906C24.8748 27.088 24.7501 27.4992 24.661 28.1292Z" fill="white"/>
<path d="M20.4655 27.3332C20.4655 27.1582 20.4655 27.1232 20.4655 27.0882C20.4655 27.0445 20.4744 27.027 20.51 27.0182C20.5279 27.0182 20.5457 27.0182 20.5546 27.0182C20.5724 27.0182 20.5724 27.0182 20.5724 27.0095C20.5724 27.0007 20.5635 27.0007 20.5457 27.0007C20.5011 27.0007 20.412 27.0007 20.3853 27.0007C20.3497 27.0007 20.2784 27.0007 20.225 27.0007C20.2072 27.0007 20.1982 27.0007 20.1982 27.0095C20.1982 27.0182 20.2072 27.0182 20.2161 27.0182C20.2339 27.0182 20.2428 27.0182 20.2606 27.0182C20.2962 27.027 20.3051 27.0445 20.3141 27.0882C20.3141 27.1232 20.3141 27.1582 20.3141 27.3332V27.5432C20.3141 27.6482 20.3141 27.7445 20.3051 27.797C20.2962 27.832 20.2962 27.8582 20.2695 27.867C20.2606 27.867 20.2428 27.867 20.225 27.867C20.2072 27.867 20.2072 27.8757 20.2072 27.8757C20.2072 27.8845 20.2161 27.8845 20.2339 27.8845C20.2784 27.8845 20.3586 27.8845 20.3853 27.8845C20.4833 27.8845 20.5635 27.8932 20.7328 27.8932C20.7951 27.8932 20.804 27.8845 20.804 27.8582C20.8129 27.8232 20.8218 27.7357 20.8218 27.7182C20.8218 27.7007 20.8218 27.7007 20.8129 27.7007C20.804 27.7007 20.804 27.7095 20.804 27.7182C20.804 27.7445 20.7862 27.7707 20.7684 27.7882C20.7417 27.8145 20.6882 27.8232 20.6259 27.8232C20.5368 27.8232 20.5011 27.8145 20.4833 27.797C20.4566 27.7707 20.4566 27.692 20.4566 27.5432V27.3332H20.4655Z" fill="white"/>
<path d="M22.0327 27.9019C22.095 27.9019 22.1662 27.8932 22.2196 27.8582C22.3087 27.8057 22.3354 27.7182 22.3354 27.6569C22.3354 27.5432 22.282 27.4644 22.1395 27.3594L22.1039 27.3332C22.006 27.2632 21.9793 27.2194 21.9793 27.1669C21.9793 27.0969 22.0327 27.0444 22.1217 27.0444C22.2018 27.0444 22.2374 27.0794 22.2553 27.1057C22.282 27.1319 22.2909 27.1757 22.2909 27.1844C22.2909 27.2019 22.2998 27.2019 22.2998 27.2019C22.3087 27.2019 22.3087 27.1932 22.3087 27.1669C22.3087 27.0794 22.3176 27.0444 22.3176 27.0269C22.3176 27.0182 22.3087 27.0182 22.2998 27.0094C22.2731 27.0007 22.2196 26.9919 22.1395 26.9919C21.9704 26.9919 21.8636 27.0882 21.8636 27.2107C21.8636 27.3069 21.9081 27.3857 22.0416 27.4907L22.095 27.5344C22.1929 27.6132 22.2107 27.6657 22.2107 27.7269C22.2107 27.7882 22.1573 27.8582 22.0505 27.8582C21.9793 27.8582 21.9081 27.8232 21.8814 27.7357C21.8725 27.7182 21.8725 27.6919 21.8725 27.6744C21.8725 27.6657 21.8725 27.6482 21.8636 27.6482C21.8547 27.6482 21.8547 27.6657 21.8458 27.6832C21.8458 27.7007 21.8369 27.7707 21.8369 27.8319C21.8369 27.8582 21.8369 27.8669 21.8636 27.8757C21.9081 27.8932 21.9615 27.9019 22.0327 27.9019Z" fill="white"/>
<path d="M21.2045 27.5432C21.2045 27.6569 21.2045 27.7532 21.1956 27.8057C21.1956 27.8407 21.1867 27.8582 21.16 27.8669C21.1511 27.8669 21.1333 27.8669 21.1155 27.8669C21.0977 27.8669 21.0977 27.8757 21.0977 27.8757C21.0977 27.8844 21.1066 27.8844 21.1244 27.8844C21.1778 27.8844 21.249 27.8844 21.2757 27.8844C21.3113 27.8844 21.3825 27.8844 21.4626 27.8844C21.4715 27.8844 21.4893 27.8844 21.4893 27.8757C21.4893 27.8669 21.4804 27.8669 21.4715 27.8669C21.4537 27.8669 21.427 27.8669 21.4092 27.8669C21.3736 27.8582 21.3647 27.8407 21.3647 27.8057C21.3558 27.7532 21.3558 27.6657 21.3558 27.5432V27.3332C21.3558 27.1582 21.3558 27.1232 21.3558 27.0882C21.3558 27.0444 21.3647 27.0269 21.4003 27.0182C21.4181 27.0182 21.4181 27.0182 21.4359 27.0182C21.4537 27.0182 21.4537 27.0182 21.4537 27.0007C21.4537 26.9919 21.4448 26.9919 21.427 26.9919C21.3825 26.9919 21.3113 26.9919 21.2846 26.9919C21.249 26.9919 21.1778 26.9919 21.1244 26.9919C21.1066 26.9919 21.0977 26.9919 21.0977 27.0007C21.0977 27.0094 21.1066 27.0182 21.1155 27.0182C21.1333 27.0182 21.1511 27.0182 21.16 27.0182C21.1867 27.0269 21.1956 27.0444 21.2045 27.0882C21.2045 27.1232 21.2045 27.1582 21.2045 27.3332V27.5432Z" fill="white"/>
<path d="M18.1041 27.5432C18.1041 27.6482 18.1041 27.7444 18.0952 27.7969C18.0952 27.8319 18.0863 27.8582 18.0595 27.8582C18.0506 27.8582 18.0328 27.8582 18.015 27.8582C18.0061 27.8582 17.9972 27.8582 17.9972 27.8669C17.9972 27.8757 18.0061 27.8757 18.0239 27.8757C18.0685 27.8757 18.1486 27.8757 18.1754 27.8757C18.2377 27.8757 18.3446 27.8844 18.4337 27.8844C18.6564 27.8844 18.7811 27.8057 18.8346 27.7444C18.9059 27.6744 18.9682 27.5607 18.9682 27.4207C18.9682 27.2807 18.9148 27.1844 18.8524 27.1232C18.7188 26.9919 18.5228 26.9919 18.3713 26.9919C18.3001 26.9919 18.2199 26.9919 18.1843 26.9919C18.1486 26.9919 18.0774 26.9919 18.015 26.9919C17.9972 26.9919 17.9883 26.9919 17.9883 27.0007C17.9883 27.0094 17.9972 27.0094 18.0061 27.0094C18.0239 27.0094 18.0417 27.0094 18.0506 27.0094C18.0863 27.0182 18.0952 27.0357 18.1041 27.0794C18.1041 27.1144 18.1041 27.1494 18.1041 27.3244V27.5432ZM18.2555 27.3157V27.0794C18.2555 27.0707 18.2644 27.0619 18.2734 27.0532C18.2823 27.0532 18.3268 27.0444 18.3535 27.0444C18.4515 27.0444 18.5852 27.0619 18.6921 27.1669C18.7455 27.2194 18.8079 27.3069 18.8079 27.4557C18.8079 27.5782 18.7811 27.6832 18.7099 27.7532C18.6386 27.8144 18.5584 27.8407 18.4337 27.8407C18.3357 27.8407 18.2912 27.8144 18.2734 27.7969C18.2644 27.7794 18.2644 27.7357 18.2555 27.7094C18.2555 27.6832 18.2555 27.5957 18.2555 27.4732V27.3157Z" fill="white"/>
<path d="M17.3832 27.5432C17.3832 27.6569 17.3832 27.7532 17.3743 27.8057C17.3743 27.8407 17.3654 27.8582 17.3387 27.8669C17.3298 27.8669 17.312 27.8669 17.2942 27.8669C17.2764 27.8669 17.2764 27.8757 17.2764 27.8757C17.2764 27.8844 17.2853 27.8844 17.3031 27.8844C17.3476 27.8844 17.4277 27.8844 17.4544 27.8844C17.49 27.8844 17.5612 27.8844 17.6413 27.8844C17.6502 27.8844 17.6591 27.8844 17.6591 27.8757C17.6591 27.8669 17.6502 27.8669 17.6413 27.8669C17.6235 27.8669 17.5968 27.8669 17.579 27.8669C17.5434 27.8582 17.5345 27.8407 17.5345 27.8057C17.5345 27.7532 17.5345 27.6657 17.5345 27.5432V27.3332C17.5345 27.1582 17.5345 27.1232 17.5345 27.0882C17.5345 27.0444 17.5434 27.0269 17.579 27.0182C17.5879 27.0182 17.6057 27.0182 17.6146 27.0182C17.6235 27.0182 17.6324 27.0182 17.6324 27.0007C17.6324 26.9919 17.6235 26.9919 17.6057 26.9919C17.5612 26.9919 17.49 26.9919 17.4633 26.9919C17.4277 26.9919 17.3565 26.9919 17.312 26.9919C17.2942 26.9919 17.2853 26.9919 17.2853 27.0007C17.2853 27.0094 17.2942 27.0182 17.3031 27.0182C17.312 27.0182 17.3298 27.0182 17.3476 27.0182C17.3743 27.0269 17.3832 27.0444 17.3921 27.0882C17.3921 27.1232 17.3921 27.1582 17.3921 27.3332V27.5432H17.3832Z" fill="white"/>
<path d="M16.6169 27.4469C16.6169 27.4382 16.6169 27.4382 16.6258 27.4382C16.6436 27.4382 16.7683 27.4382 16.8039 27.4469C16.8396 27.4469 16.8574 27.4732 16.8663 27.4907C16.8663 27.5082 16.8752 27.5169 16.8752 27.5257C16.8752 27.5344 16.8752 27.5432 16.8841 27.5432C16.893 27.5432 16.893 27.5344 16.893 27.5169C16.893 27.5082 16.893 27.4557 16.9019 27.4294C16.9019 27.3944 16.9108 27.3682 16.9108 27.3594C16.9108 27.3507 16.9108 27.3507 16.9019 27.3507C16.893 27.3507 16.893 27.3594 16.8841 27.3594C16.8752 27.3769 16.8574 27.3769 16.8307 27.3769C16.8129 27.3769 16.795 27.3769 16.7772 27.3769H16.6258C16.6169 27.3769 16.6169 27.3769 16.6169 27.3682V27.0794C16.6169 27.0707 16.6258 27.0619 16.6258 27.0619L16.8129 27.0707C16.8574 27.0707 16.8841 27.0882 16.893 27.1057C16.9019 27.1232 16.9019 27.1407 16.9019 27.1494C16.9019 27.1669 16.9019 27.1669 16.9108 27.1669C16.9198 27.1669 16.9198 27.1582 16.9198 27.1494C16.9198 27.1319 16.9198 27.0619 16.9287 27.0532C16.9376 27.0269 16.9376 27.0094 16.9376 27.0007C16.9376 26.9919 16.9376 26.9919 16.9287 26.9919C16.9198 26.9919 16.9198 27.0007 16.9108 27.0007C16.9019 27.0007 16.8841 27.0007 16.8574 27.0007H16.5456C16.51 27.0007 16.4387 27.0007 16.3763 27.0007C16.3585 27.0007 16.3496 27.0007 16.3496 27.0094C16.3496 27.0182 16.3585 27.0182 16.3674 27.0182C16.3852 27.0182 16.4031 27.0182 16.412 27.0182C16.4476 27.0269 16.4565 27.0444 16.4654 27.0882C16.4654 27.1232 16.4654 27.1582 16.4654 27.3332V27.5432C16.4654 27.6569 16.4654 27.7444 16.4565 27.7969C16.4476 27.8319 16.4476 27.8582 16.4209 27.8582C16.412 27.8582 16.3942 27.8582 16.3763 27.8582C16.3585 27.8582 16.3585 27.8669 16.3585 27.8669C16.3585 27.8757 16.3674 27.8757 16.3852 27.8757C16.4298 27.8757 16.5011 27.8757 16.5367 27.8757C16.5723 27.8757 16.6436 27.8757 16.7149 27.8757C16.7327 27.8757 16.7416 27.8757 16.7416 27.8669C16.7416 27.8582 16.7327 27.8582 16.7238 27.8582C16.7059 27.8582 16.6792 27.8582 16.6614 27.8582C16.6258 27.8494 16.6169 27.8232 16.6169 27.7969C16.608 27.7444 16.608 27.6569 16.608 27.5432V27.4469H16.6169Z" fill="white"/>
<path d="M9.02706 27.5432C9.02706 27.6482 9.02706 27.7444 9.01815 27.7969C9.01815 27.8319 9.00925 27.8582 8.98252 27.8582C8.97361 27.8582 8.95579 27.8582 8.93798 27.8582C8.92016 27.8582 8.92016 27.8582 8.92016 27.8669C8.92016 27.8757 8.92907 27.8757 8.94689 27.8757C8.99143 27.8757 9.07161 27.8757 9.09833 27.8757C9.16069 27.8757 9.26759 27.8844 9.35668 27.8844C9.57939 27.8844 9.70411 27.8057 9.75756 27.7444C9.82883 27.6744 9.89119 27.5607 9.89119 27.4207C9.89119 27.2807 9.83774 27.1844 9.77538 27.1232C9.64175 26.9919 9.44576 26.9919 9.29432 26.9919C9.22305 26.9919 9.14287 26.9919 9.10724 26.9919C9.07161 26.9919 9.00034 26.9919 8.92907 26.9919C8.91125 26.9919 8.90234 26.9919 8.90234 27.0007C8.90234 27.0094 8.91125 27.0094 8.92016 27.0094C8.93798 27.0094 8.95579 27.0094 8.97361 27.0094C9.00925 27.0182 9.01815 27.0357 9.02706 27.0794C9.02706 27.1144 9.02706 27.1494 9.02706 27.3244V27.5432ZM9.17851 27.3157C9.17851 27.2282 9.17851 27.1232 9.17851 27.0794C9.17851 27.0707 9.18742 27.0619 9.19632 27.0532C9.20523 27.0532 9.24978 27.0444 9.2765 27.0444C9.37449 27.0444 9.50812 27.0619 9.61502 27.1669C9.66848 27.2194 9.73084 27.3069 9.73084 27.4557C9.73084 27.5782 9.70411 27.6832 9.63284 27.7532C9.56157 27.8144 9.4814 27.8407 9.35668 27.8407C9.25868 27.8407 9.21414 27.8144 9.19632 27.7969C9.18742 27.7794 9.18742 27.7357 9.18742 27.7094C9.18742 27.6832 9.18742 27.5957 9.18742 27.4732V27.3157H9.17851Z" fill="white"/>
<path d="M7.77913 27.5082C7.77913 27.6744 7.82368 27.7619 7.88604 27.8232C7.97512 27.9019 8.09093 27.9019 8.15329 27.9019C8.23347 27.9019 8.32255 27.8932 8.40273 27.8144C8.50072 27.7357 8.51854 27.5957 8.51854 27.4557V27.3332C8.51854 27.1582 8.51854 27.1232 8.51854 27.0882C8.51854 27.0444 8.52745 27.0269 8.56308 27.0182C8.5809 27.0182 8.58981 27.0182 8.59872 27.0182C8.61653 27.0182 8.61653 27.0182 8.61653 27.0094C8.61653 27.0007 8.60763 27.0007 8.58981 27.0007C8.54527 27.0007 8.46509 27.0007 8.45618 27.0007C8.45618 27.0007 8.38491 27.0007 8.32255 27.0007C8.30474 27.0007 8.29583 27.0007 8.29583 27.0094C8.29583 27.0182 8.30474 27.0182 8.31365 27.0182C8.32255 27.0182 8.34928 27.0182 8.35819 27.0182C8.39382 27.0269 8.40273 27.0444 8.41164 27.0882C8.41164 27.1232 8.41164 27.1582 8.41164 27.3332V27.4819C8.41164 27.6044 8.41164 27.7094 8.34037 27.7707C8.28692 27.8144 8.22456 27.8319 8.17111 27.8319C8.12657 27.8319 8.07312 27.8232 8.01966 27.7794C7.95731 27.7269 7.93058 27.6569 7.93058 27.4907V27.3244C7.93058 27.1494 7.93058 27.1144 7.93058 27.0794C7.93058 27.0357 7.9484 27.0182 7.97512 27.0094C7.99294 27.0094 7.99294 27.0094 8.01076 27.0094C8.01966 27.0094 8.02857 27.0094 8.02857 27.0007C8.02857 26.9919 8.01966 26.9919 8.00185 26.9919C7.9573 26.9919 7.88604 26.9919 7.8504 26.9919C7.81477 26.9919 7.73459 26.9919 7.67223 26.9919C7.65442 26.9919 7.64551 26.9919 7.64551 27.0007C7.64551 27.0094 7.65442 27.0094 7.66333 27.0094C7.68114 27.0094 7.69896 27.0094 7.70787 27.0094C7.75241 27.0182 7.76132 27.0357 7.76132 27.0794C7.76132 27.1144 7.76132 27.1494 7.76132 27.3244V27.5082H7.77913Z" fill="white"/>
<path d="M19.3784 27.5432C19.3784 27.6482 19.3784 27.7444 19.3695 27.7969C19.3606 27.8319 19.3606 27.8582 19.3338 27.8582C19.3249 27.8582 19.3071 27.8582 19.2893 27.8582C19.2715 27.8582 19.2715 27.8669 19.2715 27.8669C19.2715 27.8757 19.2804 27.8757 19.2982 27.8757C19.3428 27.8757 19.4229 27.8757 19.4497 27.8757C19.5209 27.8757 19.6011 27.8844 19.7793 27.8844C19.8238 27.8844 19.8327 27.8844 19.8416 27.8494C19.8505 27.8232 19.8594 27.7444 19.8594 27.7182C19.8594 27.7094 19.8594 27.6919 19.8505 27.6919C19.8416 27.6919 19.8416 27.7007 19.8416 27.7094C19.8327 27.7532 19.8149 27.7794 19.7882 27.7969C19.7615 27.8144 19.708 27.8144 19.6724 27.8144C19.5476 27.8144 19.5298 27.7969 19.5298 27.7182C19.5298 27.6832 19.5298 27.5782 19.5298 27.5344V27.4382C19.5298 27.4294 19.5298 27.4294 19.5387 27.4294C19.5655 27.4294 19.6813 27.4294 19.708 27.4294C19.7525 27.4294 19.7704 27.4469 19.7793 27.4732C19.7793 27.4907 19.7793 27.5082 19.7882 27.5169C19.7882 27.5257 19.7882 27.5257 19.7971 27.5257C19.806 27.5257 19.806 27.5169 19.806 27.5082C19.806 27.4994 19.806 27.4557 19.8149 27.4294C19.8149 27.3682 19.8238 27.3507 19.8238 27.3419C19.8238 27.3332 19.8149 27.3332 19.8149 27.3332C19.806 27.3332 19.806 27.3419 19.7971 27.3507C19.7882 27.3594 19.7704 27.3682 19.7436 27.3682C19.7169 27.3682 19.5744 27.3682 19.5566 27.3682C19.5476 27.3682 19.5476 27.3682 19.5476 27.3594V27.0619C19.5476 27.0532 19.5476 27.0532 19.5566 27.0532C19.5833 27.0532 19.708 27.0532 19.7258 27.0619C19.7882 27.0707 19.7971 27.0794 19.806 27.1057C19.8149 27.1232 19.8149 27.1407 19.8149 27.1494C19.8149 27.1582 19.8149 27.1669 19.8238 27.1669C19.8327 27.1669 19.8327 27.1582 19.8327 27.1494C19.8327 27.1319 19.8416 27.0794 19.8416 27.0707C19.8416 27.0182 19.8505 27.0007 19.8505 26.9919C19.8505 26.9832 19.8505 26.9832 19.8416 26.9832C19.8327 26.9832 19.8327 26.9919 19.8238 26.9919C19.8149 26.9919 19.7971 27.0007 19.7704 27.0007H19.4675C19.4318 27.0007 19.3606 27.0007 19.2982 27.0007C19.2804 27.0007 19.2715 27.0007 19.2715 27.0094C19.2715 27.0182 19.2804 27.0182 19.2893 27.0182C19.3071 27.0182 19.3249 27.0182 19.3338 27.0182C19.3784 27.0269 19.3873 27.0444 19.3873 27.0882C19.3873 27.1232 19.3873 27.1582 19.3873 27.3332V27.5432H19.3784Z" fill="white"/>
<path d="M14.532 27.5432C14.532 27.6482 14.532 27.7444 14.5231 27.7969C14.5231 27.8319 14.5142 27.8582 14.4875 27.8582C14.4786 27.8582 14.4607 27.8582 14.4429 27.8582C14.4251 27.8582 14.4251 27.8669 14.4251 27.8669C14.4251 27.8757 14.434 27.8757 14.4518 27.8757C14.5053 27.8757 14.5765 27.8757 14.6033 27.8757C14.6389 27.8757 14.7102 27.8757 14.7903 27.8757C14.7993 27.8757 14.8082 27.8757 14.8082 27.8669C14.8082 27.8582 14.7993 27.8582 14.7903 27.8582C14.7725 27.8582 14.7458 27.8582 14.728 27.8582C14.6924 27.8494 14.6834 27.8232 14.6834 27.7969C14.6745 27.7444 14.6745 27.6482 14.6745 27.5432V27.0619H14.826C14.9329 27.0619 14.9685 27.0969 14.9685 27.1319V27.1407C14.9685 27.1582 14.9774 27.1669 14.9863 27.1669C14.9952 27.1669 14.9952 27.1582 14.9952 27.1494C14.9952 27.1144 14.9952 27.0357 14.9952 27.0182C14.9952 27.0007 14.9952 26.9919 14.9863 26.9919C14.9774 26.9919 14.9507 27.0007 14.8705 27.0007H14.3984C14.3627 27.0007 14.3093 27.0007 14.2826 27.0007C14.2558 27.0007 14.238 26.9832 14.2291 26.9832C14.2202 26.9832 14.2202 26.9919 14.2113 27.0094C14.2113 27.0182 14.1846 27.1232 14.1846 27.1407C14.1846 27.1582 14.1846 27.1582 14.1935 27.1582C14.2024 27.1582 14.2024 27.1494 14.2024 27.1407C14.2024 27.1319 14.2113 27.1144 14.2202 27.0969C14.238 27.0707 14.2647 27.0619 14.336 27.0619H14.5142V27.5432H14.532Z" fill="white"/>
<path d="M11.8423 27.1144C11.878 27.0619 11.9047 27.0269 11.9314 27.0182C11.9492 27.0182 11.967 27.0094 11.976 27.0094C11.9849 27.0094 11.9938 27.0007 11.9938 27.0007C11.9938 26.9919 11.9849 26.9919 11.976 26.9919C11.9314 26.9919 11.8869 26.9919 11.8601 26.9919C11.8423 26.9919 11.7889 26.9919 11.7443 26.9919C11.7265 26.9919 11.7176 26.9919 11.7176 27.0007C11.7176 27.0094 11.7265 27.0094 11.7354 27.0094C11.7443 27.0094 11.7621 27.0094 11.7711 27.0094C11.78 27.0094 11.7889 27.0182 11.7889 27.0269C11.7889 27.0357 11.7889 27.0532 11.78 27.0707C11.7621 27.1057 11.6552 27.2632 11.6196 27.3157C11.5751 27.2369 11.5216 27.1494 11.4682 27.0532C11.4593 27.0444 11.4593 27.0269 11.4593 27.0182C11.4593 27.0094 11.4593 27.0007 11.4771 27.0007C11.486 27.0007 11.5038 27.0007 11.5127 27.0007C11.5216 27.0007 11.5305 27.0007 11.5305 26.9919C11.5305 26.9832 11.5216 26.9832 11.5038 26.9832C11.4593 26.9832 11.388 26.9832 11.3791 26.9832C11.3256 26.9832 11.2276 26.9832 11.2009 26.9832C11.1831 26.9832 11.1742 26.9832 11.1742 26.9919C11.1742 27.0007 11.1742 27.0007 11.1831 27.0007C11.192 27.0007 11.2187 27.0007 11.2365 27.0094C11.2811 27.0182 11.3078 27.0532 11.3345 27.0969L11.5394 27.4294L11.3078 27.7532C11.2633 27.8144 11.2455 27.8319 11.2098 27.8407C11.192 27.8494 11.1742 27.8494 11.1653 27.8494C11.1564 27.8494 11.1475 27.8582 11.1475 27.8582C11.1475 27.8669 11.1564 27.8669 11.1653 27.8669H11.1831C11.2009 27.8669 11.2633 27.8669 11.2811 27.8669C11.3078 27.8669 11.388 27.8669 11.3969 27.8669H11.4147C11.4325 27.8669 11.4414 27.8669 11.4414 27.8582C11.4414 27.8494 11.4325 27.8494 11.4236 27.8494C11.4147 27.8494 11.4058 27.8494 11.3969 27.8494C11.388 27.8494 11.3702 27.8407 11.3702 27.8319C11.3702 27.8144 11.3791 27.8057 11.388 27.7794L11.5662 27.4994C11.6196 27.5869 11.6909 27.7007 11.7532 27.8144C11.7621 27.8319 11.7532 27.8407 11.7532 27.8407C11.7443 27.8407 11.7354 27.8494 11.7354 27.8494C11.7354 27.8582 11.7443 27.8669 11.78 27.8669C11.8691 27.8669 11.967 27.8669 11.9938 27.8669H12.0294C12.0472 27.8669 12.0561 27.8669 12.0561 27.8582C12.0561 27.8494 12.0472 27.8494 12.0383 27.8494C12.0294 27.8494 12.0116 27.8494 11.9938 27.8407C11.9581 27.8319 11.9403 27.8144 11.9225 27.7882C11.8958 27.7532 11.6998 27.4294 11.6642 27.3769L11.8423 27.1144Z" fill="white"/>
<path d="M13.8017 27.6831C13.8106 27.6831 13.8106 27.6831 13.8106 27.6919L13.864 27.8406C13.873 27.8581 13.864 27.8669 13.8551 27.8669C13.8462 27.8669 13.8373 27.8669 13.8373 27.8756C13.8373 27.8844 13.8551 27.8844 13.873 27.8844C13.9709 27.8844 14.0511 27.8844 14.0957 27.8844C14.1402 27.8844 14.1491 27.8844 14.1491 27.8756C14.1491 27.8669 14.1402 27.8669 14.1313 27.8669C14.1135 27.8669 14.0957 27.8669 14.0779 27.8669C14.0511 27.8581 14.0155 27.8494 13.971 27.7356C13.8908 27.5606 13.7037 27.0794 13.677 27.0094C13.6681 26.9831 13.6592 26.9744 13.6413 26.9744C13.6324 26.9744 13.6235 26.9919 13.6057 27.0269L13.3028 27.7619C13.2761 27.8231 13.2583 27.8581 13.2048 27.8669C13.1959 27.8669 13.1781 27.8669 13.1692 27.8669C13.1603 27.8669 13.1514 27.8669 13.1514 27.8756C13.1514 27.8844 13.1603 27.8844 13.1781 27.8844C13.2405 27.8844 13.3028 27.8844 13.3206 27.8844C13.3563 27.8844 13.4097 27.8844 13.4453 27.8844C13.4632 27.8844 13.4632 27.8844 13.4632 27.8756C13.4632 27.8669 13.4632 27.8669 13.4453 27.8669H13.4275C13.3919 27.8669 13.383 27.8494 13.383 27.8319C13.383 27.8231 13.3919 27.7881 13.4008 27.7619L13.4275 27.7006C13.4275 27.6919 13.4364 27.6919 13.4364 27.6919H13.8017V27.6831ZM13.481 27.6219C13.4721 27.6219 13.4721 27.6219 13.4721 27.6131L13.6235 27.2194C13.6235 27.2194 13.6235 27.2106 13.6324 27.2106C13.6324 27.2106 13.6324 27.2194 13.6413 27.2194L13.7928 27.6131C13.7928 27.6131 13.7928 27.6219 13.7839 27.6219H13.481Z" fill="white"/>
<path d="M10.6747 27.6831C10.6836 27.6831 10.6836 27.6831 10.6836 27.6919L10.7371 27.8406C10.746 27.8581 10.7371 27.8669 10.7282 27.8669C10.7193 27.8669 10.7104 27.8669 10.7104 27.8756C10.7104 27.8844 10.7282 27.8844 10.746 27.8844C10.844 27.8844 10.9331 27.8844 10.9687 27.8844C11.0133 27.8844 11.0222 27.8844 11.0222 27.8756C11.0222 27.8669 11.0133 27.8669 11.0044 27.8669C10.9865 27.8669 10.9687 27.8669 10.9509 27.8669C10.9242 27.8581 10.8885 27.8494 10.844 27.7356C10.7638 27.5606 10.5767 27.0794 10.5411 27.0094C10.5322 26.9831 10.5233 26.9744 10.5144 26.9744C10.5055 26.9744 10.4966 26.9919 10.4787 27.0269L10.1759 27.7619C10.1491 27.8231 10.1313 27.8581 10.0779 27.8669C10.069 27.8669 10.0511 27.8669 10.0422 27.8669C10.0333 27.8669 10.0244 27.8669 10.0244 27.8756C10.0244 27.8844 10.0333 27.8844 10.0511 27.8844C10.1135 27.8844 10.1759 27.8844 10.1937 27.8844C10.2293 27.8844 10.2828 27.8844 10.3184 27.8844C10.3362 27.8844 10.3362 27.8844 10.3362 27.8756C10.3362 27.8669 10.3362 27.8669 10.3184 27.8669H10.3006C10.2649 27.8669 10.256 27.8494 10.256 27.8319C10.256 27.8231 10.2649 27.7881 10.2739 27.7619L10.3006 27.7006C10.3006 27.6919 10.3095 27.6919 10.3095 27.6919H10.6747V27.6831ZM10.3451 27.6219C10.3451 27.6219 10.3362 27.6219 10.3451 27.6131L10.4966 27.2194L10.5055 27.2106L10.5144 27.2194L10.6658 27.6131C10.6658 27.6219 10.6658 27.6219 10.6569 27.6219H10.3451Z" fill="white"/>
<path d="M7.18317 27.6831C7.18317 27.6831 7.19207 27.6831 7.19207 27.6918L7.24553 27.8406C7.25443 27.8581 7.24553 27.8668 7.23662 27.8668C7.22771 27.8668 7.2188 27.8668 7.2188 27.8756C7.2188 27.8843 7.23662 27.8843 7.25443 27.8843C7.35243 27.8843 7.44151 27.8843 7.47715 27.8843C7.52169 27.8843 7.5306 27.8843 7.5306 27.8756C7.5306 27.8668 7.52169 27.8668 7.51278 27.8668C7.49496 27.8668 7.47715 27.8668 7.45933 27.8668C7.4326 27.8581 7.39697 27.8493 7.35243 27.7356C7.27225 27.5606 7.08517 27.0793 7.05845 27.0093C7.05845 26.9831 7.05845 26.9656 7.04063 26.9656C7.03172 26.9656 7.02281 26.9831 7.005 27.0181L6.71102 27.7531C6.68429 27.8143 6.66647 27.8493 6.61302 27.8581C6.60411 27.8581 6.5863 27.8581 6.57739 27.8581C6.56848 27.8581 6.55957 27.8581 6.55957 27.8668C6.55957 27.8756 6.56848 27.8756 6.5863 27.8756C6.64866 27.8756 6.71102 27.8756 6.72883 27.8756C6.76447 27.8756 6.81792 27.8756 6.85355 27.8756C6.86246 27.8756 6.87137 27.8756 6.87137 27.8668C6.87137 27.8581 6.87137 27.8581 6.85355 27.8581H6.82683C6.79119 27.8581 6.78228 27.8406 6.78228 27.8231C6.78228 27.8143 6.79119 27.7793 6.8001 27.7531L6.82683 27.6918C6.82683 27.6831 6.83573 27.6831 6.83573 27.6831H7.18317ZM6.86246 27.6218C6.85355 27.6218 6.85355 27.6218 6.85355 27.6131L7.005 27.2193L7.0139 27.2106C7.0139 27.2106 7.0139 27.2193 7.02281 27.2193L7.17426 27.6131C7.17426 27.6218 7.17426 27.6218 7.16535 27.6218H6.86246Z" fill="white"/>
<path d="M18.4248 18.5395L18.4159 18.3645H18.5941C18.8346 18.3645 18.9593 18.137 19.0217 17.8657C18.0774 17.857 14.71 17.8745 14.71 17.8745V21.287C14.995 21.0857 15.2623 20.9107 15.6186 20.8057V20.2107V20.0532H15.779H15.975C15.9928 19.2307 16.1977 18.627 16.5897 18.2332L16.7055 18.1195L16.8213 18.2332C17.2132 18.627 17.4092 19.222 17.436 20.0532H17.6409H17.8012V20.2107V20.8495C18.1843 21.007 18.4426 21.2432 18.6475 21.497C18.9682 20.8582 19.1998 20.1232 19.28 19.2745C19.2622 19.2745 19.2444 19.2832 19.2266 19.2832C18.8435 19.2832 18.4515 19.0295 18.4248 18.5395Z" fill="white"/>
<path d="M16.6876 20.9719C15.6632 20.9719 15.2712 21.2519 14.71 21.6719V24.9357C14.71 24.9357 17.1331 24.1132 18.4604 21.8119C18.1486 21.3744 17.7032 20.9719 16.6876 20.9719ZM17.525 22.2932L17.2222 21.9519L16.7055 22.4069L16.9193 22.6432C16.9193 22.6432 17.142 22.5382 17.3291 22.7657C17.1865 22.8882 16.9282 23.1069 16.7856 23.2294C16.5897 23.0107 16.7233 22.8094 16.7233 22.8094L16.5095 22.5732L15.8681 23.1332L15.6632 22.8969L16.3135 22.3544L16.0819 22.0919C16.0819 22.0919 15.9928 22.1707 15.8681 22.2757C15.681 22.0657 15.5385 21.7857 15.6721 21.4357C16.0462 21.3482 16.3046 21.5319 16.4917 21.7419C16.3669 21.8557 16.2779 21.9257 16.2779 21.9257L16.5184 22.1969L17.0529 21.7594L16.75 21.4094C17.0262 21.3744 17.2667 21.4707 17.4092 21.6282C17.525 21.7857 17.5963 22.0307 17.525 22.2932Z" fill="white"/>
<path d="M19.2629 17.8657C19.2629 17.8657 19.2361 17.8657 19.1916 17.8657C19.1114 18.2595 18.9243 18.5307 18.5947 18.5307C18.6215 18.9157 18.9243 19.117 19.2094 19.117C19.2361 19.117 19.254 19.1082 19.2807 19.1082C19.2985 18.7145 19.3074 18.3032 19.2629 17.8657Z" fill="white"/>
<path d="M10.2381 17.8394C9.99761 17.8394 9.83726 17.8394 9.83726 17.8481C9.7749 18.5306 9.80162 19.1519 9.89962 19.7206C10.1491 19.3181 10.3985 18.9156 10.3807 18.6356C10.3718 18.3381 10.3005 18.0756 10.2381 17.8394Z" fill="white"/>
<path d="M10.4075 17.8394C10.4698 18.0756 10.5411 18.3381 10.55 18.6269C10.5589 18.9594 10.3095 19.3706 10.0422 19.8081C10.0066 19.8606 9.97985 19.9044 9.95312 19.9569C10.7193 23.6844 14.3896 24.9269 14.3896 24.9269V17.8481C14.3985 17.8481 11.6368 17.8394 10.4075 17.8394ZM13.1602 22.2669C12.982 22.3019 12.688 22.3281 12.492 22.3281C12.2961 22.3281 12.011 22.3106 11.8239 22.2669C11.8417 22.1881 11.8685 22.0831 11.8952 21.9781C11.7616 21.9694 11.619 21.9169 11.5032 21.8731C11.5567 21.6806 11.6457 21.4881 11.717 21.2256C11.9664 21.2781 12.207 21.3044 12.4831 21.3044C12.7593 21.3044 12.9998 21.2869 13.2493 21.2256C13.3205 21.4881 13.4096 21.6806 13.472 21.8731C13.3651 21.9081 13.2225 21.9606 13.08 21.9781C13.1156 22.0831 13.1424 22.1881 13.1602 22.2669ZM11.6636 20.7181C11.7972 20.6656 12.3406 20.6481 12.501 20.6481C12.6613 20.6481 13.1958 20.6744 13.3384 20.7181C13.3562 20.7881 13.3562 20.8844 13.3473 20.9631C13.1424 21.0244 12.7771 21.0506 12.5099 21.0506C12.2337 21.0506 11.8774 21.0156 11.6725 20.9631C11.6457 20.8844 11.6457 20.7881 11.6636 20.7181ZM13.7036 19.3269C13.4987 19.7994 13.3027 20.2981 13.2404 20.4469C13.1335 20.4294 13.0177 20.4206 12.9018 20.4119C13.0355 19.9919 13.2047 19.3969 13.3473 19.0206C13.4363 18.7581 13.8907 18.8806 13.7036 19.3269ZM12.501 18.6181C12.5366 18.3994 13.1691 18.3556 13.0533 18.8369C12.9375 19.3269 12.786 19.9044 12.6702 20.3944C12.6168 20.3944 12.5633 20.3944 12.5099 20.3944C12.4564 20.3944 12.403 20.3944 12.3495 20.3944C12.2337 19.9044 12.0823 19.3269 11.9664 18.8369C11.8328 18.3556 12.4653 18.3994 12.501 18.6181ZM11.6546 19.0206C11.7972 19.3969 11.9575 19.9919 12.1001 20.4119C11.9843 20.4206 11.8685 20.4294 11.7616 20.4469C11.6992 20.2981 11.5032 19.8081 11.2983 19.3269C11.1023 18.8806 11.5567 18.7581 11.6546 19.0206Z" fill="white"/>
<path d="M19.4412 12.8081H14.5504H9.65962H9.48145V12.9918V16.4218C9.52599 16.4481 9.57053 16.4831 9.61507 16.5181V12.9568H19.5213V16.2643C19.557 16.2993 19.5926 16.3431 19.6282 16.4043V12.9831V12.7993H19.4412V12.8081Z" fill="white"/>
<path d="M9.98019 16.0895C10.2385 16.2995 10.3365 16.4482 10.2564 17.1482C10.2474 17.2357 10.292 17.402 10.3454 17.577H19.0669C19.0758 17.4807 19.0847 17.3932 19.0847 17.3145C19.0936 16.9295 19.0223 16.6232 18.8976 16.5007C18.8531 16.457 18.8085 16.4395 18.7283 16.4395H18.7105L18.3631 16.4745L18.5502 16.1857C18.7283 15.897 18.9956 15.7307 19.2718 15.7132V13.167H9.85547V16.0107C9.8911 16.0282 9.91783 16.0457 9.95346 16.072L9.98019 16.0895ZM15.5213 15.757V15.582L15.0937 15.5732C15.1917 15.127 16.0736 14.567 16.4745 14.4357C16.4567 13.9545 17.0981 13.797 17.6148 13.7795C18.2562 13.762 18.4076 14.4445 18.4076 14.6545C18.4076 14.9345 18.3364 15.5557 17.98 15.7482C17.4633 16.0282 17.0179 15.6432 17.0179 15.2932C17.0179 14.9082 17.2852 14.6895 17.7573 14.742C18.2206 14.7945 18.1849 14.532 17.8375 14.4445C17.6682 14.4007 16.9288 14.3657 16.6794 14.9082C16.5368 14.917 16.3854 14.8557 16.2963 14.7682C16.1983 14.8907 16.0469 14.9695 15.842 15.0307C16.0202 15.3895 16.3854 15.3282 16.6081 15.162C16.5992 15.2145 16.5992 15.2582 16.5992 15.3107C16.5992 16.1945 17.5524 16.4132 18.1404 16.0807C18.0424 16.3695 18.0869 16.7282 18.1315 16.9732H15.8153C15.8509 16.7282 16.1627 16.4482 16.421 16.2732L16.2161 15.9582C15.9667 16.0632 15.7262 16.1682 15.4589 16.2382C14.8175 16.387 14.8531 15.932 15.5213 15.757ZM13.891 16.4745C13.8019 16.597 13.2496 16.7632 13.116 16.6845C12.8844 16.5445 12.7685 16.2557 12.822 16.1245C12.8844 15.9582 13.4901 15.792 13.6861 15.8532C13.8821 15.9145 13.9623 16.3607 13.891 16.4745ZM10.6751 15.0657C11.1828 14.777 11.4501 14.567 11.7173 14.1557C11.5214 14.0595 11.2808 13.8845 11.1027 13.6395C12.0737 13.9107 12.5637 14.0507 13.7129 13.6482C13.5258 13.937 13.2496 14.112 13.018 14.2607C13.2763 14.6807 13.5347 15.162 13.6238 15.547C13.2852 15.5207 12.8933 15.5995 12.6171 15.8532C12.1895 15.8707 11.6461 16.002 11.3521 15.0482C11.2007 15.127 11.0403 15.2232 11.0403 15.2232C11.2185 15.8445 11.5392 16.2732 12.3944 16.177C12.4389 16.3782 12.4746 16.492 12.5815 16.6582C12.234 16.8595 11.3521 17.367 10.684 16.7807V15.0657H10.6751Z" fill="white"/>
<path d="M9.85547 16.2119V17.5857H10.167C10.1136 17.4019 10.0691 17.2444 10.0869 17.1394C10.1581 16.4394 10.0513 16.3694 9.85547 16.2119Z" fill="white"/>
<path d="M19.262 17.5856V15.8794C19.0573 15.8969 18.8526 16.0194 18.6924 16.2731C18.7102 16.2731 18.728 16.2731 18.7458 16.2731C19.1285 16.2731 19.262 16.7894 19.2531 17.3231C19.2531 17.4106 19.2442 17.4981 19.2442 17.5856H19.262Z" fill="white"/>
<path d="M12.1443 15.2494C12.3047 15.3281 12.5096 15.2319 12.7145 15.2581C12.6699 15.1706 12.6254 15.1094 12.6521 14.9781C12.7055 14.7331 12.5006 14.6719 12.4116 14.6719C12.171 14.6894 12.0463 14.7331 11.7969 14.6719C11.9572 14.8381 11.9216 15.1356 12.1443 15.2494Z" fill="white"/>
<path d="M159.171 19.7381V15.5118C159.171 14.8468 159.117 14.6805 158.939 14.4705C158.796 14.3043 158.529 14.208 158.235 14.208C157.727 14.208 156.935 14.6105 156.471 15.083V19.7381H155.5V14.9255C155.5 14.033 155.26 13.6043 155.26 13.6043L156.231 13.3418C156.231 13.3418 156.462 13.8055 156.462 14.3218C157.131 13.6655 157.79 13.3593 158.467 13.3593C159.153 13.3593 159.767 13.718 160.026 14.278C160.133 14.5055 160.177 14.7593 160.177 15.0043V19.7468H159.171V19.7381Z" fill="white"/>
<path d="M136.391 19.7381V15.5118C136.391 14.8468 136.338 14.6805 136.16 14.4705C136.017 14.3043 135.75 14.208 135.456 14.208C134.948 14.208 134.155 14.6105 133.692 15.083V19.7381H132.721V14.9255C132.721 14.033 132.48 13.6043 132.48 13.6043L133.451 13.3418C133.451 13.3418 133.683 13.8055 133.683 14.3218C134.351 13.6655 135.01 13.3593 135.688 13.3593C136.382 13.3593 136.988 13.718 137.247 14.278C137.345 14.5055 137.398 14.7593 137.398 15.0043V19.7468H136.391V19.7381Z" fill="white"/>
<path d="M119.555 19.8081H118.575L116.285 13.5518L117.31 13.3418L118.788 17.6468C118.967 18.163 119.091 18.7143 119.091 18.7143H119.118C119.118 18.7143 119.225 18.2243 119.421 17.6643L120.882 13.508H121.942L119.555 19.8081Z" fill="white"/>
<path d="M146.298 19.738V15.1268C146.298 14.523 146.022 14.208 145.478 14.208C144.908 14.208 144.454 14.5755 143.795 15.1705V19.738H142.788V15.3018C142.788 14.9255 142.752 14.6718 142.61 14.4968C142.458 14.3218 142.254 14.243 141.96 14.243C141.47 14.243 140.997 14.4793 140.338 15.0743V19.738H139.376V14.8993C139.376 13.998 139.145 13.5693 139.145 13.5693L140.116 13.3418C140.116 13.3418 140.347 13.8318 140.347 14.2693C140.766 13.8055 141.55 13.333 142.2 13.333C142.824 13.333 143.447 13.7093 143.679 14.3743C144.294 13.7355 145.069 13.333 145.719 13.333C146.663 13.333 147.314 14.033 147.314 15.0305V19.7468H146.298V19.738Z" fill="white"/>
<path d="M150.066 16.7807V16.9295C150.066 17.5157 150.146 17.9707 150.36 18.2945C150.717 18.837 151.304 19.0557 151.946 19.0557C152.561 19.0557 153.059 18.8632 153.505 18.4695L153.888 19.0995C153.327 19.5982 152.561 19.8782 151.741 19.8782C149.977 19.8782 148.917 18.627 148.917 16.5532C148.917 15.5032 149.149 14.8207 149.683 14.1907C150.191 13.6045 150.823 13.3245 151.59 13.3245C152.276 13.3245 152.881 13.5607 153.309 13.9982C153.861 14.5495 154.039 15.1357 154.039 16.632V16.772H150.066V16.7807ZM152.685 14.6457C152.471 14.3045 152.026 14.0945 151.536 14.0945C150.627 14.0945 150.12 14.742 150.066 16.037H152.979C152.961 15.3632 152.872 14.952 152.685 14.6457Z" fill="white"/>
<path d="M123.599 16.7807V16.9295C123.599 17.5157 123.68 17.9707 123.893 18.2945C124.25 18.837 124.838 19.0557 125.479 19.0557C126.094 19.0557 126.593 18.8632 127.038 18.4695L127.421 19.0995C126.86 19.5982 126.094 19.8782 125.274 19.8782C123.51 19.8782 122.45 18.627 122.45 16.5532C122.45 15.5032 122.682 14.8207 123.216 14.1907C123.724 13.6045 124.357 13.3245 125.123 13.3245C125.809 13.3245 126.414 13.5607 126.851 13.9982C127.403 14.5495 127.581 15.1357 127.581 16.632V16.772H123.599V16.7807ZM126.218 14.6457C126.005 14.3045 125.55 14.0945 125.069 14.0945C124.161 14.0945 123.653 14.742 123.599 16.037H126.512C126.495 15.3632 126.406 14.952 126.218 14.6457Z" fill="white"/>
<path d="M131.741 14.4356C131.679 14.4094 131.563 14.3831 131.465 14.3831C131.082 14.3831 130.699 14.5494 130.405 14.8381C130.111 15.1269 130.031 15.3106 130.031 15.8269V19.7381H129.033V14.9256C129.033 14.0069 128.819 13.5956 128.819 13.5956L129.817 13.3331C129.817 13.3331 130.058 13.8231 130.022 14.3481C130.485 13.7094 131.153 13.3069 131.813 13.3069C131.982 13.3069 132.16 13.3681 132.16 13.3681L131.741 14.4356Z" fill="white"/>
<path d="M113.168 19.9044C111.422 19.9044 110.424 18.6356 110.424 16.5794C110.424 14.5494 111.457 13.3069 113.132 13.3069C114.192 13.3069 114.887 13.7794 115.315 14.4006C115.707 14.9694 115.903 15.7044 115.903 16.7194C115.903 18.8019 114.762 19.9044 113.168 19.9044ZM114.468 14.9081C114.201 14.3569 113.64 14.1031 113.114 14.1031C112.553 14.1031 112.027 14.3656 111.814 14.7769C111.609 15.1619 111.511 15.6694 111.511 16.4044C111.511 17.2794 111.662 18.0581 111.912 18.4519C112.143 18.8281 112.651 19.0819 113.203 19.0819C113.871 19.0819 114.37 18.7406 114.584 18.1369C114.727 17.7519 114.78 17.4019 114.78 16.7806C114.762 15.9144 114.673 15.3281 114.468 14.9081Z" fill="white"/>
<path d="M83.9296 20.0706C83.5376 19.9043 83.1724 19.6156 83.012 19.2918C82.8873 19.4143 82.7448 19.5456 82.62 19.6331C82.2993 19.8606 81.8361 19.9831 81.3016 19.9831C79.8495 19.9831 79.0566 19.2568 79.0566 17.9793C79.0566 16.4743 80.1168 15.7743 82.2013 15.7743C82.3261 15.7743 82.4419 15.7743 82.5844 15.7831V15.5206C82.5844 14.8031 82.4419 14.5668 81.8183 14.5668C81.266 14.5668 80.6335 14.8293 79.9297 15.2931L79.1992 14.0856C79.5466 13.8756 79.796 13.7443 80.2593 13.5606C80.9007 13.2981 81.4441 13.1843 82.0499 13.1843C83.1456 13.1843 83.9029 13.5868 84.1612 14.3043C84.2503 14.5668 84.2859 14.7681 84.277 15.4593L84.2414 17.6206C84.2325 18.3206 84.277 18.6268 84.8561 19.0468L83.9296 20.0706ZM82.4686 16.9293C81.2838 16.9293 80.874 17.1393 80.874 17.9093C80.874 18.4081 81.1947 18.7493 81.6312 18.7493C81.9519 18.7493 82.2726 18.5831 82.5221 18.3118L82.5488 16.9293H82.4686Z" fill="white"/>
<path d="M57.4711 17.0518V17.1043C57.4711 18.0931 57.97 18.6618 58.852 18.6618C59.4399 18.6618 59.9922 18.4518 60.5089 18.0231L61.1771 19.0293C60.4198 19.6331 59.6359 19.9218 58.7094 19.9218C56.8297 19.9218 55.6182 18.6181 55.6182 16.5968C55.6182 15.4418 55.8587 14.6806 56.4377 14.0506C56.9723 13.4643 57.6226 13.1843 58.4956 13.1843C59.2528 13.1843 59.9655 13.4381 60.3842 13.8581C60.9811 14.4618 61.2573 15.3281 61.2573 16.6668V17.0518H57.4711ZM59.4756 15.7481C59.4756 15.2756 59.4221 15.0218 59.2707 14.7856C59.1014 14.5318 58.8609 14.4093 58.5134 14.4093C57.8631 14.4093 57.4889 14.9081 57.4889 15.8006V15.8268H59.4666V15.7481H59.4756Z" fill="white"/>
<path d="M50.8608 17.0518V17.1043C50.8608 18.0931 51.3597 18.6618 52.2416 18.6618C52.8296 18.6618 53.3819 18.4518 53.8986 18.0231L54.5667 19.0293C53.8095 19.6331 53.0166 19.9218 52.0991 19.9218C50.2194 19.9218 49.0078 18.6181 49.0078 16.5968C49.0078 15.4418 49.2483 14.6806 49.8274 14.0506C50.3619 13.4643 51.0122 13.1843 51.8853 13.1843C52.6425 13.1843 53.3552 13.4381 53.7739 13.8581C54.3707 14.4618 54.6469 15.3281 54.6469 16.6668V17.0518H50.8608ZM52.8652 15.7481C52.8652 15.2756 52.8117 15.0218 52.6603 14.7856C52.491 14.5318 52.2505 14.4093 51.9031 14.4093C51.2528 14.4093 50.8786 14.9081 50.8786 15.8006V15.8268H52.8563V15.7481H52.8652Z" fill="white"/>
<path d="M89.6581 19.7382V15.5644C89.6581 14.8382 89.5244 14.6194 89.079 14.6194C88.7316 14.6194 88.2862 14.8469 87.8942 15.1969V19.7382H86.1838V15.0832C86.1838 14.5319 86.1036 14.0069 85.9521 13.5782L87.4755 13.1494C87.6269 13.4119 87.716 13.6919 87.716 13.9544C87.9744 13.7794 88.1882 13.6307 88.4732 13.4819C88.8207 13.3069 89.2661 13.2019 89.6492 13.2019C90.3797 13.2019 91.0122 13.5782 91.2171 14.1294C91.3061 14.3657 91.3418 14.6457 91.3418 15.0482V19.7382H89.6581Z" fill="white"/>
<path d="M66.0946 19.7382V15.5644C66.0946 14.8382 65.9699 14.6194 65.5156 14.6194C65.1681 14.6194 64.7227 14.8469 64.3307 15.1969V19.7382H62.6203V15.0832C62.6203 14.5319 62.5401 14.0069 62.3887 13.5782L63.912 13.1494C64.0635 13.4119 64.1526 13.6919 64.1526 13.9544C64.4109 13.7794 64.6247 13.6307 64.9098 13.4819C65.2572 13.3069 65.7026 13.2019 66.0857 13.2019C66.8162 13.2019 67.4487 13.5782 67.6536 14.1294C67.7427 14.3657 67.7783 14.6457 67.7783 15.0482V19.7382H66.0946Z" fill="white"/>
<path d="M46.629 19.9132C46.4152 19.7644 46.237 19.5544 46.1212 19.2832C45.7025 19.6857 45.0878 19.8957 44.4019 19.8957C43.4843 19.8957 42.6914 19.4669 42.4687 18.8544C42.3707 18.5657 42.3262 18.2244 42.3262 17.5769V13.4644L44.0099 13.1494V17.2794C44.0099 17.8569 44.0633 18.1544 44.1524 18.3294C44.2415 18.5044 44.4998 18.6269 44.7493 18.6269C45.168 18.6269 45.6847 18.3294 45.8094 18.0144V13.4994L47.4486 13.1582V18.0582C47.4486 18.4869 47.5911 18.9244 47.8405 19.2219L46.629 19.9132Z" fill="white"/>
<path d="M71.6624 19.9394C70.8607 19.9394 69.9787 19.6856 69.0166 19.2044L69.6313 17.9794C70.1569 18.2944 71.0656 18.7056 71.805 18.7056C72.286 18.7056 72.6691 18.3906 72.6691 17.9794C72.6691 17.5419 72.3484 17.3144 71.6624 17.1919L70.8963 17.0519C70.4598 16.9731 69.9253 16.6756 69.6936 16.3956C69.462 16.1244 69.3195 15.6519 69.3195 15.2406C69.3195 13.9894 70.3262 13.1406 71.8495 13.1406C72.9007 13.1406 73.5867 13.4556 74.1835 13.7444L73.6223 14.8731C72.972 14.5494 72.4998 14.4094 72.0099 14.4094C71.511 14.4094 71.1814 14.6631 71.1814 15.0394C71.1814 15.3631 71.3952 15.5381 72.0009 15.6869L72.7938 15.8881C73.5956 16.0894 73.8628 16.3256 74.0944 16.6144C74.335 16.9119 74.4508 17.2794 74.4508 17.7081C74.4597 19.0381 73.3372 19.9394 71.6624 19.9394Z" fill="white"/>
<path d="M164.471 14.2344H163.143V18.2594C163.143 18.9507 163.33 19.1869 163.963 19.1869C164.239 19.1869 164.408 19.1519 164.587 19.0644L164.729 19.6944C164.408 19.8607 164.052 19.9482 163.607 19.9482C163.277 19.9482 163.019 19.8869 162.778 19.7732C162.333 19.5632 162.163 19.1607 162.163 18.5307V14.2432H161.335V13.4907H162.163C162.163 12.8869 162.261 11.9069 162.261 11.9069L163.313 11.6794C163.313 11.6794 163.188 12.6594 163.188 13.4819H164.783L164.471 14.2344Z" fill="white"/>
<path d="M106.558 19.878C105.462 19.878 104.526 19.5018 103.858 18.8018C103.119 18.0143 102.771 16.9468 102.771 15.468C102.771 13.823 103.217 12.6593 104.126 11.8543C104.749 11.303 105.506 11.0405 106.415 11.0405C107.35 11.0405 108.152 11.3293 108.811 11.8893L108.339 12.528C107.627 12.0555 107.11 11.863 106.433 11.863C105.408 11.863 104.607 12.3268 104.25 13.3155C104.019 13.9543 103.903 14.6805 103.903 15.503C103.903 16.6318 104.117 17.5418 104.518 18.1105C104.918 18.6793 105.809 19.0293 106.638 19.0293C107.19 19.0293 107.662 18.9155 108.027 18.688V16.063H106.264L106.059 15.2143H109.007V19.2305C108.393 19.6243 107.448 19.878 106.558 19.878Z" fill="white"/>
<path d="M41.2935 21.2169C41.2935 21.2169 41.0352 21.3657 40.5006 21.3657C39.8147 21.3657 39.2 20.9632 38.8704 20.7532C38.4517 20.4819 37.7568 20.0882 37.0709 19.8782C35.7435 19.8782 34.8705 19.5194 34.1934 18.6532C33.5164 17.7957 33.1689 16.6932 33.1689 15.4157C33.1689 13.5344 33.8994 12.0207 35.1734 11.3382C35.699 11.0669 36.3493 10.9094 37.0085 10.9094C39.3693 10.9094 40.8303 12.6069 40.8303 15.3369C40.8303 17.2269 40.1443 18.6444 39.0842 19.3357C39.3247 19.4232 39.6722 19.6507 39.877 19.7732C40.1978 19.9569 40.5808 20.1319 40.9728 20.1319C41.3559 20.1319 41.7657 20.0707 41.7657 20.0707L41.2935 21.2169ZM38.5497 13.3682C38.4071 12.9307 37.935 12.2657 36.9907 12.2657C36.3938 12.2657 35.8682 12.5632 35.6099 13.0269C35.307 13.5869 35.1645 14.3569 35.1645 15.4069C35.1645 16.9119 35.4228 17.8569 35.9573 18.2332C36.2424 18.4344 36.5987 18.5307 37.0174 18.5307C38.2557 18.5307 38.7813 17.6032 38.7813 15.3807C38.7813 14.4969 38.7011 13.8582 38.5497 13.3682Z" fill="white"/>
<path d="M97.2209 19.7381C97.1674 19.6419 97.1407 19.5369 97.1229 19.3619C96.7042 19.7294 96.2053 19.9044 95.6174 19.9044C93.9604 19.9044 92.9092 18.6356 92.9092 16.6406C92.9092 14.6369 94.0406 13.2544 95.7065 13.2544C96.1786 13.2544 96.5528 13.3681 96.8646 13.6219C96.8378 13.4819 96.8111 13.0444 96.8111 12.6681V10.4631L98.5126 10.7256V17.4019C98.5126 18.9856 98.6373 19.4931 98.7532 19.7469H97.2209V19.7381ZM96.8378 15.0131C96.5171 14.7331 96.2142 14.6019 95.9024 14.6019C95.1363 14.6019 94.8067 15.2319 94.8067 16.6581C94.8067 18.0406 95.1007 18.4869 95.9915 18.4869C96.3122 18.4869 96.6686 18.2681 96.8378 18.0756V15.0131Z" fill="white"/>
<path d="M77.4973 19.8868C76.7668 19.8868 76.1788 19.5456 75.9739 19.0118C75.8492 18.6881 75.8225 18.4868 75.8225 17.5681V12.7731C75.8225 11.9331 75.7958 11.4168 75.7334 10.8393L77.4795 10.4456C77.5418 10.7956 77.5686 11.2068 77.5686 12.1168V17.1218C77.5686 18.2243 77.5775 18.3731 77.6844 18.5481C77.7467 18.6618 77.8893 18.7231 78.0318 18.7231C78.0942 18.7231 78.1387 18.7231 78.2189 18.6968L78.5129 19.7031C78.2189 19.8256 77.8625 19.8868 77.4973 19.8868Z" fill="white"/>
<path d="M15.8951 10.7606C15.8327 10.7606 15.7703 10.7869 15.7347 10.8394C15.6634 10.8306 15.5922 10.8131 15.512 10.8044V10.4106C15.5833 10.3844 15.6367 10.3144 15.6367 10.2269C15.6367 10.1219 15.5476 10.0256 15.4407 10.0256C15.3338 10.0256 15.2447 10.1131 15.2447 10.2269C15.2447 10.2969 15.2893 10.3669 15.3516 10.4019V10.7781C15.2804 10.7694 15.218 10.7606 15.1378 10.7606C15.1111 10.6906 15.0398 10.6469 14.9597 10.6469C14.8528 10.6469 14.7637 10.7344 14.7637 10.8394C14.7637 10.9444 14.8528 11.0319 14.9597 11.0319C15.0309 11.0319 15.0933 10.9969 15.1289 10.9444C15.2091 10.9531 15.2804 10.9619 15.3516 10.9706L15.3427 11.5394C15.2804 11.5744 15.2358 11.6356 15.2358 11.7144C15.2358 11.8194 15.3249 11.9156 15.4318 11.9156C15.5387 11.9156 15.6367 11.8281 15.6367 11.7144C15.6367 11.6356 15.5833 11.5656 15.5209 11.5394L15.5298 10.9881C15.5922 10.9969 15.6545 11.0056 15.7169 11.0144C15.7436 11.0931 15.8149 11.1456 15.904 11.1456C16.0109 11.1456 16.0999 11.0581 16.0999 10.9531C16.091 10.8481 16.002 10.7606 15.8951 10.7606Z" fill="white"/>
<path d="M14.158 10.6469C14.0778 10.6469 14.0065 10.6906 13.9709 10.7606C13.8996 10.7694 13.8284 10.7694 13.7571 10.7781V10.4019C13.8195 10.3669 13.864 10.3056 13.864 10.2269C13.864 10.1219 13.7749 10.0256 13.668 10.0256C13.5522 10.0256 13.4631 10.1131 13.4631 10.2269C13.4631 10.3056 13.5166 10.3756 13.5789 10.4106L13.5878 10.8044C13.5166 10.8131 13.4364 10.8219 13.3651 10.8394C13.3295 10.7956 13.276 10.7606 13.2048 10.7606C13.0979 10.7606 13.0088 10.8481 13.0088 10.9619C13.0088 11.0669 13.0979 11.1544 13.2048 11.1544C13.2939 11.1544 13.3651 11.1019 13.3919 11.0231C13.4542 11.0144 13.5166 11.0056 13.5789 10.9969L13.5878 11.5481C13.5166 11.5744 13.472 11.6444 13.472 11.7231C13.472 11.8281 13.5611 11.9244 13.668 11.9244C13.7749 11.9244 13.8729 11.8369 13.8729 11.7231C13.8729 11.6444 13.8284 11.5831 13.766 11.5481V10.9794C13.8373 10.9706 13.9085 10.9619 13.9887 10.9531C14.0244 11.0056 14.0867 11.0406 14.158 11.0406C14.2649 11.0406 14.3629 10.9531 14.3629 10.8481C14.3629 10.7344 14.2649 10.6469 14.158 10.6469Z" fill="white"/>
<path d="M20.9195 6.59569C20.9195 5.37069 20.875 4.36444 20.8571 4.04944C20.9017 4.05819 20.9551 4.07569 21.0086 4.09319C21.8994 4.39944 22.1043 5.45819 23.9573 4.25944C22.9685 4.37319 22.915 3.55069 22.4607 3.53319C23.1466 3.14819 23.1912 2.27319 23.1912 2.27319C22.621 2.72819 21.2848 2.75444 21.0264 2.90319C20.679 3.10444 20.2514 3.35819 19.9574 3.51569C19.1913 3.92694 19.7258 6.16694 19.6456 6.98069C19.2269 5.76444 18.3895 5.94819 17.953 5.24819C17.6234 5.83444 17.9708 6.80569 18.1044 7.08569C17.6234 7.47069 17.757 8.17069 17.8728 8.36319C18.2826 8.07444 18.9151 8.14444 19.1022 8.63444C18.5677 8.95819 17.6679 9.01069 17.0532 8.43319L16.8394 8.66944C17.2759 9.22944 18.3539 9.44819 19.1645 8.99319C19.1645 9.12444 19.1289 9.26444 19.0754 9.42194C18.6567 9.64069 18.1133 9.75444 17.4986 9.54444C17.5788 10.1569 18.3004 10.6119 18.9864 10.8044C18.7547 10.9794 18.4697 11.0494 18.2648 11.0232C18.3984 11.3819 18.4697 11.8544 18.1935 12.2307C17.855 12.0119 17.6679 11.7844 17.5432 10.9269C17.4096 10.0607 16.7771 9.18569 16.2871 9.01069C16.2604 9.31694 16.2604 9.18569 16.3138 9.37819C17.6145 10.3144 16.884 12.0119 18.238 12.6244C18.7369 12.0644 18.7458 11.8719 18.6657 11.3469C19.1556 11.2157 19.5209 10.8132 19.6545 10.4982C19.1913 10.7169 18.4519 10.3319 18.247 10.0344C19.0576 10.0082 19.8059 9.41319 20.5721 8.62569C21.258 7.92569 22.1667 8.03069 22.0954 8.58194C22.5676 8.51194 22.7547 7.88194 22.6032 7.47069C23.2981 7.25194 23.8415 6.75319 23.9128 5.96569C22.9774 6.42069 21.8014 5.66819 20.9195 6.59569ZM22.0331 7.25194C22.3983 7.54944 22.2825 7.96944 22.1934 8.06569C21.8727 7.52319 20.8393 7.70694 19.8238 8.83569C19.7525 8.92319 19.6545 9.01944 19.5476 9.11569C19.6278 7.76819 18.5053 7.74194 18.1757 7.88194C18.2113 7.49694 18.4608 7.22569 18.5855 7.19069C18.2559 6.81444 18.1846 6.34194 18.149 5.99194C18.7013 6.22819 19.512 6.85819 19.6456 7.94319L20.0019 7.70694C19.895 5.80819 19.9218 5.81694 19.9039 4.53069C19.9039 4.34694 19.9128 3.92694 20.4919 3.97069C20.5186 4.45194 20.5899 5.72069 20.5632 7.48819H20.7681C20.9551 6.99819 21.6233 6.41194 22.3983 6.46444C22.9239 6.49944 23.111 6.49069 23.4139 6.35944C23.1734 6.95444 22.2736 7.21694 22.0331 7.25194ZM20.5186 3.63819C20.8928 3.37569 21.1333 3.25319 21.3293 3.13944C21.65 3.14819 22.2112 3.11319 22.5409 2.94694C22.1934 3.36694 22.1578 3.51569 21.5876 3.57694C22.3271 3.63819 22.6388 4.28569 22.9952 4.39069C21.7658 4.76694 21.6411 3.56819 20.5186 3.63819Z" fill="white"/>
<path d="M12.7772 9.60566C12.0912 9.64066 11.4231 10.5157 11.6993 11.5132C11.5924 11.5482 11.2984 11.5482 11.2004 11.3469C11.1291 11.6707 10.4521 12.0469 9.96211 11.9944C10.2294 11.7057 10.4164 11.0582 10.942 10.7169C11.4766 10.3757 11.7082 10.1394 11.8953 9.55316C11.6458 9.66691 10.3719 9.99066 10.0066 9.60566C10.853 9.48316 11.8418 9.01941 12.3318 8.71316L12.1358 8.51191C11.6102 8.80941 10.9064 9.04566 10.5501 9.15941C10.4253 8.12691 11.4231 8.17066 11.5033 8.45066C11.9131 7.96941 11.628 7.27816 11.3251 7.19941C11.6369 6.37691 11.3251 5.86941 11.0579 5.56316C10.9955 6.43816 9.99774 6.57816 9.88193 7.25191C9.8463 6.71816 9.81066 5.27441 9.76612 4.57441C9.70376 3.26191 8.02005 2.79816 7.76171 2.79816C6.66596 2.85066 6.56797 2.71066 6.59469 2.21191C6.03346 2.83316 6.22053 3.38441 6.69269 3.65566C6.63033 4.03191 6.02455 4.32066 5.65039 4.39941C6.54124 5.21316 7.57463 4.73191 8.0735 4.26816C8.10914 4.23316 8.13586 4.20691 8.1715 4.17191C8.34967 4.47816 8.4833 5.04691 8.4833 5.37066C7.6459 5.32691 7.50336 5.95691 7.50336 6.19316C8.56347 5.76441 8.67928 7.75941 8.95545 8.07441C8.68819 8.05691 8.20713 7.43566 7.50336 7.39191C6.64814 7.34816 6.35416 7.79441 6.00673 7.77691C6.06909 8.36316 6.79959 8.69566 7.27174 8.76566C7.03121 9.36941 7.24501 9.78066 7.74389 9.92941C7.74389 9.37816 8.45657 9.20316 9.21379 9.64066C10.1314 10.1657 10.5946 10.2094 11.334 9.99066C11.2093 10.2532 10.8797 10.2794 10.4788 10.6732C9.90866 11.2244 9.89084 11.9419 9.25834 12.2044C10.0066 12.5544 11.1291 12.0644 11.2895 11.7844C11.6013 11.9769 12.0022 11.8632 12.1091 11.6707C11.6013 10.5682 12.4565 9.92066 12.795 9.92941C12.795 9.92066 12.9465 9.59691 12.7772 9.60566ZM8.90199 9.15941C8.52784 9.01066 7.94879 8.91441 7.62808 9.36066C7.44991 9.05441 7.70825 8.60816 7.86861 8.46816C7.04903 8.48566 6.58578 8.24066 6.46106 7.99566C6.76395 7.82941 7.53008 7.55816 8.16259 8.01316C8.59911 8.32816 8.81291 8.47691 9.3296 8.64316C9.51668 8.45941 9.44541 8.54691 9.50777 8.49441C9.08907 8.20566 8.90199 6.00941 8.0735 5.93066C8.18931 5.65066 8.61692 5.67691 8.96435 5.76441C8.99108 5.27441 8.78618 4.46066 8.47439 3.98816C8.95545 3.74316 9.28506 4.00566 9.44541 4.59191C9.62358 5.21316 9.40978 6.76191 9.82848 8.16191L10.0868 7.92566C9.9532 7.11191 10.8708 6.81441 11.0668 6.40316C11.1469 6.94566 11.0311 7.19941 10.8708 7.39191C11.2004 7.42691 11.3518 7.75066 11.2984 7.96941C10.5055 7.85566 10.0423 8.63441 10.2205 9.25566C9.62358 9.38691 9.2227 9.29066 8.90199 9.15941ZM6.64814 3.04316C7.27174 3.34066 7.47663 2.78941 8.64365 3.53316C7.86861 3.76941 7.27174 4.71441 6.3987 4.46941C7.0223 4.16316 6.95994 3.71691 7.32519 3.48941C7.09357 3.46316 6.63923 3.35816 6.64814 3.04316Z" fill="white"/>
<path d="M16.8131 12.3355C16.6884 11.548 16.4034 9.32554 16.3677 8.59054L16.0203 8.60804C16.0203 8.73054 16.0381 8.89679 16.0559 9.09804C15.6461 8.97554 15.1027 8.89679 14.5504 8.89679C13.9981 8.89679 13.4546 8.98429 13.0448 9.09804C13.0627 8.90554 13.0805 8.73929 13.0805 8.60804L12.742 8.58179C12.7063 9.32554 12.4213 11.5393 12.2965 12.3268C12.0916 12.4055 11.958 12.6068 11.958 12.9655C11.958 12.9655 13.8288 12.9918 14.5593 12.9918C15.2898 12.9918 17.1606 12.9655 17.1606 12.9655C17.1517 12.6068 17.018 12.4143 16.8131 12.3355ZM14.5504 12.3093C14.2564 12.8693 13.7041 12.8518 13.2141 12.5368C13.0181 12.4143 12.8221 12.3268 12.6351 12.3005C12.7152 11.7493 12.8578 10.7168 12.9558 9.84179C13.5794 9.56179 14.3544 9.50054 14.5415 10.2093C14.7286 9.50054 15.5036 9.57054 16.1272 9.84179C16.2252 10.7168 16.3677 11.758 16.4479 12.3005C16.2697 12.3268 16.0648 12.4143 15.8688 12.5368C15.4056 12.8518 14.8533 12.8693 14.5504 12.3093Z" fill="white"/>
<path d="M18.4339 3.70812C18.4429 3.53312 18.1132 3.40187 18.0242 3.39312C17.8816 3.38437 17.7124 3.67312 17.5253 3.84812C17.3649 3.00812 17.4451 2.64062 17.5342 2.26437C17.8994 2.91187 18.3894 3.05187 18.6477 3.01687C17.7747 2.33437 17.9262 1.71312 17.6589 1.67812C17.5075 1.66062 17.4006 1.66937 17.3204 1.66937C17.0175 1.66937 16.9729 2.25562 16.9284 2.51812C16.7324 2.15937 16.5364 1.85312 16.1979 1.43312C15.8772 0.619375 15.4852 0.820625 15.0843 0.453125C15.3961 0.916875 15.1467 1.20562 15.8683 1.53812C16.0554 1.71312 16.2781 1.99312 16.4206 2.21187C16.2959 2.36937 16.2157 2.45687 16.0999 2.57062C16.0108 2.70187 15.9663 3.20937 15.6901 3.58562C16.0999 3.41062 16.2692 3.15687 16.4117 2.92062C17.7213 3.89187 16.6612 6.35937 16.3583 6.90187C16.0732 6.70937 15.699 6.60437 15.3694 6.54312L15.3338 6.42937L15.0309 5.45812H15.1734C15.3338 5.45812 15.3783 5.35312 15.3516 5.26562L16.2514 5.53687L16.6522 5.65937L16.4117 5.32687L15.993 4.75812L16.4117 4.18937L16.6522 3.85687L16.2514 3.97937L15.4407 4.22437C15.3872 4.04062 15.2358 3.95312 15.0665 3.93562L15.3427 3.03437L15.4585 2.64937L15.1289 2.88562L14.5498 3.29687L13.9708 2.88562L13.6412 2.64937L13.757 3.03437L14.0331 3.93562C13.8728 3.96187 13.7124 4.04937 13.659 4.22437L12.8483 3.97937L12.4474 3.85687L12.688 4.18937L13.1067 4.75812L12.688 5.32687L12.4474 5.65937L12.8483 5.53687L13.757 5.26562C13.7303 5.35312 13.7659 5.45812 13.9262 5.45812H14.0688L13.7659 6.42937L13.7213 6.55187C13.3739 6.61312 12.9998 6.72687 12.7147 6.91937C11.8327 5.24812 12.0822 3.55062 12.8216 2.99062C12.8127 3.34937 13.1245 3.83062 13.2759 3.92687C13.1779 3.55937 13.3472 2.90312 13.1512 2.73687C13.0176 2.62312 12.8127 2.57062 12.59 2.57062C12.7414 2.32562 12.9463 2.01937 13.2937 1.57312C13.8104 1.34562 13.9619 0.750625 14.0866 0.453125C13.5254 0.654375 13.1067 0.943125 13.0176 1.40687C12.8216 1.66937 12.5989 1.97563 12.3494 2.33437C12.3673 1.89688 12.1178 1.74812 11.7971 1.72187C10.8528 1.91437 10.9152 2.58812 10.1045 3.05187C10.6568 3.24437 11.5299 2.04562 11.8327 2.17687C11.8773 2.91187 11.708 3.48937 11.708 3.89187C11.5655 3.73437 11.4942 3.62937 11.3695 3.61187C11.2537 3.59437 10.933 3.62062 10.7192 3.85687C10.6568 4.23312 10.6746 4.93313 10.3183 5.76437C10.8439 5.29187 11.1022 4.35562 11.1824 4.08437C11.316 4.26812 11.4675 4.67062 11.5031 5.02062C11.5655 5.68562 11.9842 6.80562 12.3405 7.33937C12.2425 7.52312 12.2158 7.73312 12.2514 7.96937C11.9753 8.17062 11.9396 8.45062 12.0376 8.64312C12.1445 8.84437 12.4118 8.98437 12.7325 8.86187L12.8305 8.81812C13.169 8.67812 13.7926 8.42437 14.5498 8.42437C15.3071 8.42437 15.9396 8.67812 16.2692 8.81812L16.3672 8.86187C16.6879 8.98437 16.9551 8.84437 17.062 8.64312C17.16 8.45062 17.1244 8.17062 16.8482 7.96937C16.8839 7.72437 16.8482 7.49687 16.7324 7.29562L16.7413 7.30437C17.3916 6.39437 17.4362 4.66187 17.9707 4.17187C18.0152 4.77562 18.3449 5.28312 18.6656 5.35312C18.4161 4.92437 18.4161 4.09312 18.4339 3.70812ZM15.4674 4.52187L15.9485 4.37312L15.7168 4.68812L15.6545 4.76687L15.7168 4.84562L15.9485 5.16062L15.3427 4.97687C15.3872 4.85437 15.4318 4.72312 15.4674 4.52187ZM13.169 5.16937L13.4006 4.85437L13.463 4.77562L13.4006 4.69687L13.169 4.38187L13.6501 4.53062C13.6768 4.73187 13.7213 4.87187 13.7748 4.99437L13.169 5.16937ZM15.0665 5.01187H14.6924L14.7369 4.35562C15.2982 4.10187 15.2536 4.61812 15.0665 5.01187ZM14.9596 6.13187L14.6389 5.90437L14.5587 5.84312L14.4786 5.90437L14.1579 6.13187L14.3628 5.46687H14.7547L14.9596 6.13187ZM14.4697 3.58562L14.5498 3.64687L14.63 3.58562L14.9596 3.34937L14.7725 3.97062C14.7636 3.97062 14.7547 3.97062 14.7547 3.97937C14.7191 3.90062 14.6389 3.84812 14.5498 3.84812C14.4608 3.84812 14.3806 3.90062 14.3449 3.97937C14.336 3.97937 14.336 3.97937 14.3271 3.97062L14.14 3.34937L14.4697 3.58562ZM14.0421 5.01187C13.855 4.61812 13.8104 4.10187 14.3717 4.35562L14.4162 5.01187H14.0421ZM14.5498 6.18437L15.0042 6.50812C14.8082 6.49062 14.6478 6.49062 14.5498 6.49062C14.4518 6.49062 14.2915 6.49062 14.0955 6.50812L14.5498 6.18437ZM12.6969 8.49437L12.5989 8.52937C12.4652 8.58187 12.3762 8.53812 12.3405 8.47687C12.3049 8.40687 12.3316 8.29312 12.492 8.19687C12.5098 8.18812 12.5365 8.17062 12.5632 8.16187L12.8839 8.41562C12.8127 8.45062 12.7503 8.47687 12.6969 8.49437ZM13.7837 8.15312L13.4541 7.83812C13.7303 7.76812 14.0153 7.72437 14.2915 7.70687L14.4875 8.08312C14.238 8.08312 13.9975 8.11812 13.7837 8.15312ZM15.6189 8.22312L15.4229 7.78562C15.7168 7.83812 16.0019 7.92562 16.2514 8.03062L16.3672 8.48562C16.1801 8.40687 15.9307 8.30187 15.6189 8.22312ZM14.5498 7.35687C13.9262 7.35687 13.2136 7.50562 12.6701 7.73312C12.679 7.61062 12.7236 7.51437 12.7949 7.41812C13.1067 7.04187 13.9351 6.91062 14.5409 6.91062C15.1467 6.91062 15.9752 7.04187 16.287 7.41812C16.3672 7.50562 16.4028 7.61062 16.4117 7.73312C15.8861 7.49687 15.1912 7.35687 14.5498 7.35687Z" fill="white"/>
<path d="M10.0958 17.1132C10.176 16.4045 10.0602 16.3432 9.85526 16.177C9.67709 16.0282 9.3742 15.9845 9.08022 15.7832C8.86641 15.6345 8.80405 15.4332 8.5368 15.1532C8.59025 14.5582 9.02676 13.8232 9.34747 13.657C9.39201 13.6307 9.3831 12.7032 9.3831 12.7032C9.3831 12.7032 9.59691 12.6945 9.57909 12.6857C9.29402 12.5107 8.94659 12.642 8.69715 12.9307C8.45662 13.1232 7.89538 13.4907 7.51232 13.622C6.99563 13.1932 6.18495 12.8082 5.58808 12.2307C5.58808 12.2307 6.37203 12.222 6.73728 12.082C6.83527 12.0207 7.08471 11.6357 6.97781 11.2595C6.85309 11.2157 6.68383 11.1282 6.50566 11.032C6.29185 10.9095 6.08696 10.787 5.98896 10.7082C5.65044 10.4545 5.50791 10.2357 4.91994 10.087C4.95558 9.82445 5.01794 9.8857 5.27628 9.7107C5.6059 9.49195 5.79298 9.22945 5.92661 8.96695C6.0246 8.7657 5.90879 8.3457 5.65044 8.87945C5.56136 9.0632 5.30301 9.31695 5.00903 9.3957C5.03575 9.22945 5.04466 9.1332 5.04466 9.0457C5.90879 8.4507 5.8197 7.9257 5.75734 7.42695C5.70389 7.1382 5.41882 7.0157 5.42773 7.3132C5.43664 7.51445 5.61481 8.07445 5.02685 8.3982C5.00903 8.1532 4.94667 8.03945 4.89322 7.91695C5.41882 7.23445 5.19611 6.5782 4.9734 6.2807C4.83086 6.0882 4.49234 6.02695 4.64378 6.32445C4.77741 6.56945 4.9823 7.2432 4.59033 7.51445C4.4567 7.35695 4.30526 7.28695 4.25181 7.0682C4.28744 6.3332 4.2429 5.8782 4.1449 5.6157C4.05582 5.3707 3.81529 5.2132 3.83311 5.5807C3.85092 5.99195 3.88656 6.5082 3.85092 6.53445C3.81529 6.56945 3.26296 6.06195 3.04025 5.9132C2.80863 5.7557 2.54137 5.81695 2.79972 6.1232C3.04025 6.3857 3.74402 6.90195 3.65494 7.0682C3.60149 7.1732 3.0937 6.76195 2.82645 6.67445C2.55919 6.58695 2.47901 6.72695 2.70173 6.90195C3.06698 7.1907 3.30751 7.3832 3.90437 7.58445C4.50124 7.77695 4.79523 8.5907 4.60815 9.7457C4.59924 9.7982 4.50124 9.78945 4.43889 9.77195C4.41216 9.33445 4.33198 8.8007 4.22508 8.5732C4.08254 8.2582 3.80638 8.2582 3.90437 8.66945C3.98455 8.9932 4.02909 9.35195 3.97564 9.78945C3.48568 9.7107 3.2986 9.57945 3.0937 9.45695C3.07588 9.22945 3.19169 8.86195 3.20951 8.5382C3.22733 8.21445 3.03134 8.0132 2.92444 8.4157C2.81754 8.80945 2.74627 8.9932 2.68391 9.2732C2.54137 9.22945 2.38993 9.1682 2.32757 9.08945C2.29194 9.05445 2.32757 8.61695 2.29194 8.2932C2.2563 7.93445 2.11377 7.9432 2.00686 8.2582C1.95341 8.40695 1.91778 8.59945 1.89996 8.82695C1.7307 8.7307 1.61489 8.5382 1.59707 8.37195C1.6238 7.9957 1.68616 7.60195 1.7307 7.3482C1.76633 7.1732 1.64161 6.8057 1.49908 7.2432C1.39218 7.56695 1.36545 7.82945 1.30309 8.0482C1.17837 8.03945 1.01802 7.3307 0.928934 6.86695C0.8933 6.6657 0.71513 6.42945 0.679496 6.88445C0.643862 7.4007 0.750764 7.91695 0.884392 8.14445C0.634954 8.1182 0.394424 7.67195 0.216254 7.40945C0.0648096 7.18195 -0.015367 7.4182 0.00245005 7.51445C0.153895 8.42445 0.8933 8.7482 1.22292 8.80945C1.73961 9.5357 2.72845 9.8507 3.56585 10.2095C2.47901 10.2007 2.19394 10.6295 1.69507 10.3495C1.71288 10.752 1.91778 10.9357 2.11377 11.032C2.2563 11.0932 2.38993 11.1107 2.45229 11.1282C2.54137 11.6182 3.01352 11.592 3.41441 11.6182C3.3075 12.572 3.43222 13.832 4.27853 14.7682C4.25181 15.2495 4.21617 15.8882 4.22508 16.3082C3.53913 16.9295 2.91553 18.2595 2.675 18.9945C2.48792 19.5457 2.21176 19.9745 1.78415 20.1757C2.13158 20.5345 2.64828 20.3595 2.95116 20.1582C2.96898 20.482 3.04916 20.7095 3.10261 20.902C2.90662 21.1907 2.76409 21.392 2.7819 21.7507C2.55919 21.812 2.39884 21.952 2.28303 22.1007C2.20285 22.197 2.29194 22.6345 2.38102 22.8182C2.65718 23.4307 2.44338 24.8132 2.38993 25.2157C2.50574 25.2245 2.71954 25.2245 2.76409 25.0582C2.83535 25.1195 3.00462 25.242 3.08479 25.5044C3.06698 25.6182 2.99571 26.047 3.21842 26.0995C3.39659 26.1432 4.18054 26.117 4.28744 25.9857C4.20726 25.8982 4.07364 25.6882 3.99346 25.487C3.99346 25.277 3.97564 25.0232 3.91328 24.9182C3.8242 24.7607 3.60149 24.4107 3.45004 24.2707C3.42332 24.017 3.39659 22.8882 3.5124 22.4595C3.7173 22.3195 5.08921 21.322 5.37428 20.3595C5.62372 20.447 5.55245 21.112 5.55245 21.9782C5.55245 22.2145 5.83752 22.3282 6.01569 22.3545C6.38985 22.3982 6.91545 22.7482 7.51232 23.6145C7.62813 23.492 7.77957 23.3782 7.77957 23.3782C7.85975 23.4832 7.94883 23.7282 8.00229 23.8857C8.06465 24.0082 8.5457 24.0782 8.91095 23.9645C9.03567 23.9207 9.10694 23.9032 9.18712 23.772C8.72388 22.9757 8.4388 22.4419 7.84193 22.0044C7.56577 21.8032 7.19161 21.6982 6.87981 21.5057C7.08471 21.1207 7.65485 19.3357 7.31633 18.6795C7.20052 18.4607 6.764 18.2507 6.2384 18.347C6.67492 17.8307 7.57468 16.7982 7.69049 16.4832C7.79739 16.6057 8.32299 16.5182 8.71497 16.6757C8.8575 16.737 9.25839 17.2445 9.2762 17.4195C9.31184 17.7345 9.32965 18.1107 9.10694 18.977C9.26729 18.9507 9.24057 18.942 9.39201 18.8807C9.41874 19.1082 9.34747 19.292 9.14258 19.642C9.19603 19.957 9.33856 20.4382 9.49001 20.5257C9.68599 19.9395 10.4254 19.117 10.4076 18.627C10.3719 17.962 10.0602 17.402 10.0958 17.1132Z" fill="white"/>
</svg>
